HIERARCHY
ROOT COM
{
	OFFSET 0.000000 0.000000 0.000000 
	CHANNELS 6 Xposition Yposition Zposition Zrotation Xrotation Yrotation
	JOINT Spine
	{
		OFFSET 0.000000 0.078370 -0.028498 
		CHANNELS 3 Zrotation Xrotation Yrotation
		JOINT Spine1
		{
			OFFSET 0.000000 0.111469 -0.000097 
			CHANNELS 3 Zrotation Xrotation Yrotation
			JOINT Spine2
			{
				OFFSET 0.000000 0.121511 -0.000092 
				CHANNELS 3 Zrotation Xrotation Yrotation
				JOINT Neck
				{
					OFFSET 0.000000 0.119873 -0.000040 
					CHANNELS 3 Zrotation Xrotation Yrotation
					JOINT Head
					{
						OFFSET 0.000000 0.051518 0.000000 
						CHANNELS 3 Zrotation Xrotation Yrotation
						End Site
						{
							OFFSET 0.000000 0.000000 0.000000 
						}
					}
					JOINT Leftcollar
					{
						OFFSET 0.033237 -0.012095 0.015552 
						CHANNELS 3 Zrotation Xrotation Yrotation
						JOINT LeftArm
						{
							OFFSET 0.131452 0.000000 0.000000 
							CHANNELS 3 Zrotation Xrotation Yrotation
							JOINT LeftForeArm
							{
								OFFSET 0.000000 -0.219203 0.000000 
								CHANNELS 3 Zrotation Xrotation Yrotation
								JOINT LeftHand
								{
									OFFSET 0.000000 -0.193166 0.000000 
									CHANNELS 3 Zrotation Xrotation Yrotation
									End Site
									{
										OFFSET -0.023329 -0.077705 -0.004495 
									}
								}
							}
						}
					}
					JOINT RightCollar
					{
						OFFSET -0.033237 -0.012094 0.015552 
						CHANNELS 3 Zrotation Xrotation Yrotation
						JOINT RightArm
						{
							OFFSET -0.131452 0.000000 0.000000 
							CHANNELS 3 Zrotation Xrotation Yrotation
							JOINT RightForeArm
							{
								OFFSET 0.000000 -0.219203 0.000000 
								CHANNELS 3 Zrotation Xrotation Yrotation
								JOINT RightHand
								{
									OFFSET 0.000000 -0.193166 0.000000 
									CHANNELS 3 Zrotation Xrotation Yrotation
									End Site
									{
										OFFSET 0.023329 -0.077705 -0.004495 
									}
								}
							}
						}
					}
				}
			}
		}
	}
	JOINT LeftUpLeg
	{
		OFFSET 0.077678 0.000000 0.000000 
		CHANNELS 3 Zrotation Xrotation Yrotation
		JOINT LeftLeg
		{
			OFFSET 0.000000 -0.359164 0.000000 
			CHANNELS 3 Zrotation Xrotation Yrotation
			JOINT LeftFoot
			{
				OFFSET 0.000000 -0.337214 0.000000 
				CHANNELS 3 Zrotation Xrotation Yrotation
				JOINT LeftToe
				{
					OFFSET 0.000000 0.000000 0.122098 
					CHANNELS 3 Zrotation Xrotation Yrotation
					End Site
					{
						OFFSET 0.000000 0.000000 0.000000 
					}
				}
			}
		}
	}
	JOINT RightUpLeg
	{
		OFFSET -0.077678 0.000000 0.000000 
		CHANNELS 3 Zrotation Xrotation Yrotation
		JOINT RightLeg
		{
			OFFSET 0.000000 -0.359164 0.000000 
			CHANNELS 3 Zrotation Xrotation Yrotation
			JOINT RightFoot
			{
				OFFSET 0.000000 -0.337214 0.000000 
				CHANNELS 3 Zrotation Xrotation Yrotation
				JOINT RightToe
				{
					OFFSET 0.000000 0.000000 0.122098 
					CHANNELS 3 Zrotation Xrotation Yrotation
					End Site
					{
						OFFSET 0.000000 0.000000 0.000000 
					}
				}
			}
		}
	}
}
MOTION
Frames: 5
Frame Time: 0.033333
0.244080 0.694974 0.948516 359.940704 354.315094 136.931000 0.236480 356.185211 0.000000 360.000000 360.000000 358.274475 360.000000 360.000000 360.000000 360.000000 360.000000 360.000000 360.000000 360.000000 360.000000 360.000000 360.000000 360.000000 28.234800 340.541595 359.572174 0.000000 304.242004 0.000000 0.000000 0.000000 90.000000 360.000000 360.000000 360.000000 336.885315 31.882099 46.316898 0.000000 343.614990 0.000000 0.000000 0.000000 270.000000 0.805130 9.985730 26.622499 360.000000 14.232100 0.000000 0.000000 356.745087 334.534088 360.000000 0.000000 360.000000 2.796760 337.113007 321.442902 360.000000 357.706818 0.000000 0.000001 32.787899 47.660702 360.000000 360.000000 0.000000 
0.273453 0.693593 0.928203 0.501047 351.492676 137.072998 2.354700 352.823151 0.000000 360.000000 0.000000 0.093548 0.000000 0.000000 0.000000 0.000000 360.000000 0.000000 0.000000 360.000000 0.000000 0.000000 360.000000 0.000000 27.303400 343.489502 358.472839 360.000000 305.679413 360.000000 0.000000 0.000000 90.000000 0.000000 360.000000 0.000000 336.863190 32.765701 47.338501 360.000000 344.059387 360.000000 0.000000 0.000000 270.000000 4.245440 10.434300 27.522600 360.000000 16.042500 0.000000 360.000000 357.368622 333.877289 0.000000 360.000000 0.000000 5.998560 337.527008 328.064209 0.000000 358.318024 0.000000 360.000000 36.037399 41.993801 360.000000 0.000000 360.000000 
0.299691 0.694967 0.907445 2.272830 350.559570 139.151001 3.943190 352.012268 0.000000 360.000000 0.000000 0.858782 0.000000 0.000000 0.000000 0.000000 0.000000 0.000000 0.000000 0.000000 0.000000 0.000000 0.000000 0.000000 25.857401 345.613403 357.006531 0.000000 309.268097 0.000000 360.000000 0.000000 90.000000 0.000000 0.000000 0.000000 336.936890 32.398300 47.952999 360.000000 343.636292 0.000000 0.000000 360.000000 270.000000 7.784140 11.195200 25.543400 0.000000 20.055099 360.000000 0.000000 359.745544 334.323303 0.000000 0.000000 0.000000 7.279670 339.925293 328.823303 360.000000 359.705353 360.000000 360.000000 36.528702 37.848000 360.000000 0.000000 360.000000 
0.324645 0.698899 0.888555 3.599200 348.823212 140.595993 5.873960 350.260925 0.000000 0.000000 0.000000 2.084670 0.000000 0.000000 0.000000 0.000000 0.000000 0.000000 0.000000 0.000000 0.000000 0.000000 0.000000 0.000000 24.166000 348.026611 356.020386 0.000000 314.852295 0.000000 0.000000 0.000000 90.000000 0.000000 0.000000 0.000000 336.803009 30.193600 49.888802 0.000000 343.497192 360.000000 360.000000 0.000000 270.000000 11.801500 9.273920 23.407000 0.000000 26.912300 0.000000 0.000000 3.377610 335.716309 360.000000 0.000000 0.000000 9.134750 341.245209 329.877991 360.000000 1.856200 360.000000 360.000000 33.034000 36.124298 0.000000 360.000000 360.000000 
0.342433 0.705768 0.868688 7.106860 353.217072 145.145996 5.252890 356.059631 0.000000 0.000000 0.000000 0.938771 0.000000 0.000000 0.000000 0.000000 0.000000 0.000000 0.000000 0.000000 0.000000 0.000000 0.000000 0.000000 22.235600 349.395203 355.142944 360.000000 319.808685 0.000000 0.000000 0.000000 90.000000 0.000000 0.000000 0.000000 335.973694 26.527100 51.352699 0.000000 341.200287 360.000000 360.000000 0.000000 270.000000 13.515700 9.825040 15.755500 0.000000 36.596699 360.000000 0.000000 10.489500 341.579895 0.000000 360.000000 360.000000 7.788240 348.483612 324.245514 0.000000 3.355450 360.000000 0.000001 29.883801 37.081299 360.000000 360.000000 0.000000 
